<svg width="28" height="28" viewBox="0 0 28 28" fill="none" xmlns="http://www.w3.org/2000/svg">
<path d="M21.5 9.29557V6.50309C21.5 6.08917 21.1647 5.75323 20.75 5.75323C20.3353 5.75323 20 6.08917 20 6.50309V8.27726L16.0977 5.6445C14.8235 4.78517 13.1765 4.78517 11.9023 5.6445L6.65225 9.18684C5.618 9.88496 5 11.0465 5 12.295V19.2507C5 21.3181 6.68225 23 8.75 23H11C11.4147 23 11.75 22.6641 11.75 22.2501V16.2513C11.75 15.8381 12.086 15.5014 12.5 15.5014H15.5C15.914 15.5014 16.25 15.8381 16.25 16.2513V22.2501C16.25 22.6641 16.5853 23 17 23H19.25C21.3177 23 23 21.3181 23 19.2507V12.295C23 11.1095 22.442 10.0019 21.5 9.29557ZM21.5 19.2507C21.5 20.491 20.4905 21.5003 19.25 21.5003H17.75V16.2513C17.75 15.011 16.7405 14.0017 15.5 14.0017H12.5C11.2595 14.0017 10.25 15.011 10.25 16.2513V21.5003H8.75C7.5095 21.5003 6.5 20.491 6.5 19.2507V12.295C6.5 11.5459 6.8705 10.8485 7.4915 10.4301L12.7415 6.88777C13.5065 6.37187 14.4935 6.37187 15.2578 6.88777L20.5078 10.4301C21.1288 10.8485 21.4993 11.5459 21.4993 12.295L21.5 19.2507Z" fill="#FE4545"/>
</svg>
