<svg width="40" height="40" viewBox="0 0 40 40" fill="none" xmlns="http://www.w3.org/2000/svg">
<path d="M12.668 28.9205V11.7462C12.668 11.2361 12.8466 10.8175 13.2039 10.4903C13.5612 10.1634 13.9782 10 14.4548 10C14.6038 10 14.7599 10.0211 14.9233 10.0633C15.0866 10.1051 15.2426 10.1683 15.3912 10.2526L29.1892 18.8581C29.4601 19.0391 29.6631 19.2558 29.7982 19.5083C29.9336 19.7611 30.0013 20.0361 30.0013 20.3333C30.0013 20.6306 29.9336 20.9056 29.7982 21.1584C29.6631 21.4108 29.4601 21.6276 29.1892 21.8086L15.3912 30.414C15.2423 30.4984 15.0858 30.5615 14.9218 30.6034C14.7581 30.6456 14.6018 30.6667 14.4529 30.6667C13.9759 30.6667 13.5593 30.5032 13.2029 30.1764C12.8463 29.8492 12.668 29.4305 12.668 28.9205Z" fill="#1B1E23"/>
</svg>
