<svg width="20" height="19" viewBox="0 0 20 19" fill="none" xmlns="http://www.w3.org/2000/svg">
<path d="M17.9156 8.71209H4.80402L17.5227 5.41204C18.3569 5.196 18.8599 4.36821 18.6595 3.49216L18.3822 2.49977C18.0471 0.773777 16.1506 -0.380843 14.464 0.116142L2.84255 3.21993C1.18529 3.66468 0.17524 5.38039 0.595102 7.05653L1.27956 9.60714V15.0431C1.27956 17.2249 3.05645 19 5.24052 19H15.539C17.7231 19 19.5 17.2249 19.5 15.0431V10.2948C19.5 9.42195 18.7894 8.71209 17.9156 8.71209ZM9.55322 3.0664L7.42935 6.39652L5.30073 6.9489L7.42143 3.6354L9.55322 3.0664ZM14.1582 1.83739L12.0629 5.19441L9.68077 5.81248L11.8181 2.46179L14.1582 1.83739ZM17.125 3.88073L14.2913 4.61592L16.0516 1.79545C16.0706 1.80573 16.0912 1.80969 16.1094 1.82077C16.4841 2.0479 16.7408 2.40876 16.8446 2.88042L17.125 3.88073ZM3.25212 4.74808L5.1518 4.2408L3.04377 7.53373L2.40764 7.69912L2.128 6.66084C1.92044 5.8291 2.42507 4.97045 3.25212 4.74808ZM17.9156 15.0431C17.9156 16.352 16.8493 17.4172 15.539 17.4172H5.24052C3.93024 17.4172 2.86394 16.352 2.86394 15.0431V10.2948H17.9156V15.0431Z" fill="white"/>
</svg>
