<svg width="28" height="28" viewBox="0 0 28 28" fill="none" xmlns="http://www.w3.org/2000/svg">
<path d="M19.625 9.24994H15.3681L18.547 5.43493C18.8567 5.06392 18.806 4.5118 18.435 4.20292C18.064 3.89405 17.5128 3.94392 17.203 4.31492L13.5 8.75819L9.797 4.31492C9.48725 3.94392 8.936 3.89317 8.565 4.20292C8.194 4.51267 8.14412 5.06392 8.453 5.43493L11.6319 9.24994H7.375C4.96263 9.24994 3 11.2126 3 13.625V20.625C3 23.0374 4.96263 25 7.375 25H19.625C22.0374 25 24 23.0374 24 20.625V13.625C24 11.2126 22.0374 9.24994 19.625 9.24994ZM22.25 20.625C22.25 22.0722 21.0723 23.25 19.625 23.25H7.375C5.92775 23.25 4.75 22.0722 4.75 20.625V13.625C4.75 12.1777 5.92775 10.9999 7.375 10.9999H19.625C21.0723 10.9999 22.25 12.1777 22.25 13.625V20.625ZM14.375 12.75H8.25C7.28487 12.75 6.5 13.5348 6.5 14.5V19.75C6.5 20.7151 7.28487 21.5 8.25 21.5H14.375C15.3401 21.5 16.125 20.7151 16.125 19.75V14.5C16.125 13.5348 15.3401 12.75 14.375 12.75ZM8.25 19.75V14.5H14.375V19.75H8.25ZM20.5 14.9375C20.5 15.662 19.912 16.25 19.1875 16.25C18.463 16.25 17.875 15.662 17.875 14.9375C17.875 14.213 18.463 13.625 19.1875 13.625C19.912 13.625 20.5 14.213 20.5 14.9375ZM20.5 19.3125C20.5 20.037 19.912 20.625 19.1875 20.625C18.463 20.625 17.875 20.037 17.875 19.3125C17.875 18.588 18.463 18 19.1875 18C19.912 18 20.5 18.588 20.5 19.3125Z" fill="#8C9598"/>
</svg>
