<svg width="22" height="21" viewBox="0 0 22 21" fill="none" xmlns="http://www.w3.org/2000/svg">
<path d="M17.225 5.24994H12.9681L16.147 1.43493C16.4567 1.06392 16.406 0.511797 16.035 0.202921C15.664 -0.105955 15.1127 -0.0560797 14.803 0.314922L11.1 4.75819L7.39698 0.314922C7.08723 -0.0560797 6.53598 -0.10683 6.16498 0.202921C5.79398 0.512672 5.7441 1.06392 6.05298 1.43493L9.23185 5.24994H4.97498C2.5626 5.24994 0.599976 7.21257 0.599976 9.62496V16.625C0.599976 19.0374 2.5626 21 4.97498 21H17.225C19.6374 21 21.6 19.0374 21.6 16.625V9.62496C21.6 7.21257 19.6374 5.24994 17.225 5.24994ZM19.85 16.625C19.85 18.0722 18.6722 19.25 17.225 19.25H4.97498C3.52773 19.25 2.34998 18.0722 2.34998 16.625V9.62496C2.34998 8.1777 3.52773 6.99995 4.97498 6.99995H17.225C18.6722 6.99995 19.85 8.1777 19.85 9.62496V16.625ZM11.975 8.74995H5.84998C4.88485 8.74995 4.09998 9.53483 4.09998 10.5V15.75C4.09998 16.7151 4.88485 17.5 5.84998 17.5H11.975C12.9401 17.5 13.725 16.7151 13.725 15.75V10.5C13.725 9.53483 12.9401 8.74995 11.975 8.74995ZM5.84998 15.75V10.5H11.975V15.75H5.84998ZM18.1 10.9375C18.1 11.662 17.512 12.25 16.7875 12.25C16.063 12.25 15.475 11.662 15.475 10.9375C15.475 10.213 16.063 9.62496 16.7875 9.62496C17.512 9.62496 18.1 10.213 18.1 10.9375ZM18.1 15.3125C18.1 16.037 17.512 16.625 16.7875 16.625C16.063 16.625 15.475 16.037 15.475 15.3125C15.475 14.588 16.063 14 16.7875 14C17.512 14 18.1 14.588 18.1 15.3125Z" fill="#8C9598"/>
</svg>
