<svg width="24" height="24" viewBox="0 0 24 24" fill="none" xmlns="http://www.w3.org/2000/svg">
<path d="M7.5625 13.375C6.78374 13.375 6.02246 13.1441 5.37494 12.7114C4.72742 12.2788 4.22274 11.6638 3.92472 10.9443C3.6267 10.2248 3.54873 9.43313 3.70066 8.66933C3.85259 7.90553 4.2276 7.20394 4.77827 6.65327C5.32894 6.1026 6.03053 5.72759 6.79433 5.57566C7.55813 5.42373 8.34983 5.50171 9.06932 5.79973C9.7888 6.09775 10.4038 6.60242 10.8364 7.24994C11.2691 7.89746 11.5 8.65874 11.5 9.4375C11.4988 10.4814 11.0836 11.4823 10.3455 12.2205C9.60728 12.9586 8.60643 13.3738 7.5625 13.375ZM7.5625 7.25C7.12985 7.25 6.70692 7.3783 6.34719 7.61866C5.98746 7.85903 5.70708 8.20067 5.54151 8.60038C5.37595 9.00009 5.33263 9.43993 5.41703 9.86426C5.50144 10.2886 5.70978 10.6784 6.0157 10.9843C6.32163 11.2902 6.71141 11.4986 7.13574 11.583C7.56007 11.6674 7.99991 11.6241 8.39962 11.4585C8.79933 11.2929 9.14097 11.0125 9.38134 10.6528C9.62171 10.2931 9.75 9.87015 9.75 9.4375C9.75 8.85734 9.51953 8.30094 9.1093 7.89071C8.69906 7.48047 8.14266 7.25 7.5625 7.25ZM14.125 22.125V21.6875C14.125 19.947 13.4336 18.2778 12.2029 17.0471C10.9722 15.8164 9.30298 15.125 7.5625 15.125C5.82202 15.125 4.15282 15.8164 2.92211 17.0471C1.6914 18.2778 1 19.947 1 21.6875L1 22.125C1 22.3571 1.09219 22.5796 1.25628 22.7437C1.42038 22.9078 1.64294 23 1.875 23C2.10706 23 2.32962 22.9078 2.49372 22.7437C2.65781 22.5796 2.75 22.3571 2.75 22.125V21.6875C2.75 20.4111 3.25703 19.1871 4.15955 18.2845C5.06207 17.382 6.28615 16.875 7.5625 16.875C8.83885 16.875 10.0629 17.382 10.9655 18.2845C11.868 19.1871 12.375 20.4111 12.375 21.6875V22.125C12.375 22.3571 12.4672 22.5796 12.6313 22.7437C12.7954 22.9078 13.0179 23 13.25 23C13.4821 23 13.7046 22.9078 13.8687 22.7437C14.0328 22.5796 14.125 22.3571 14.125 22.125ZM22 17.75C22 16.5676 21.6577 15.4105 21.0145 14.4183C20.3713 13.4262 19.4547 12.6414 18.3753 12.1587C17.2959 11.6761 16.0998 11.5161 14.9315 11.6983C13.7632 11.8804 12.6726 12.3968 11.7914 13.1851C11.7045 13.2614 11.6337 13.3542 11.5829 13.458C11.5321 13.5618 11.5024 13.6747 11.4955 13.7901C11.4886 13.9055 11.5046 14.0211 11.5427 14.1302C11.5807 14.2394 11.64 14.3399 11.7171 14.4261C11.7942 14.5122 11.8876 14.5822 11.9919 14.632C12.0962 14.6818 12.2093 14.7105 12.3247 14.7163C12.4402 14.7221 12.5556 14.705 12.6644 14.666C12.7732 14.627 12.8732 14.5668 12.9586 14.4889C13.5881 13.9259 14.3671 13.5572 15.2016 13.4272C16.0361 13.2972 16.8903 13.4115 17.6612 13.7563C18.4322 14.1011 19.0868 14.6617 19.5462 15.3703C20.0055 16.079 20.25 16.9055 20.25 17.75C20.25 17.9821 20.3422 18.2046 20.5063 18.3687C20.6704 18.5328 20.8929 18.625 21.125 18.625C21.3571 18.625 21.5796 18.5328 21.7437 18.3687C21.9078 18.2046 22 17.9821 22 17.75ZM16.3125 9.875C15.5337 9.875 14.7725 9.64407 14.1249 9.21141C13.4774 8.77875 12.9727 8.1638 12.6747 7.44432C12.3767 6.72483 12.2987 5.93313 12.4507 5.16933C12.6026 4.40553 12.9776 3.70394 13.5283 3.15327C14.0789 2.6026 14.7805 2.22759 15.5443 2.07566C16.3081 1.92373 17.0998 2.00171 17.8193 2.29973C18.5388 2.59775 19.1538 3.10243 19.5864 3.74994C20.0191 4.39746 20.25 5.15874 20.25 5.9375C20.2488 6.98144 19.8336 7.98228 19.0955 8.72046C18.3573 9.45863 17.3564 9.87384 16.3125 9.875ZM16.3125 3.75C15.8799 3.75 15.4569 3.8783 15.0972 4.11866C14.7375 4.35903 14.4571 4.70067 14.2915 5.10038C14.1259 5.50009 14.0826 5.93993 14.167 6.36426C14.2514 6.78859 14.4598 7.17837 14.7657 7.4843C15.0716 7.79022 15.4614 7.99856 15.8857 8.08297C16.3101 8.16737 16.7499 8.12405 17.1496 7.95849C17.5493 7.79292 17.891 7.51254 18.1313 7.15281C18.3717 6.79308 18.5 6.37015 18.5 5.9375C18.5 5.35734 18.2695 4.80094 17.8593 4.39071C17.4491 3.98047 16.8927 3.75 16.3125 3.75Z" fill="#8C9598"/>
</svg>
