<svg width="50" height="50" viewBox="0 0 50 50" fill="none" xmlns="http://www.w3.org/2000/svg">
<path d="M12.4732 34.8613C14.0697 34.8613 15.3638 33.5788 15.3638 31.9967C15.3638 30.4146 14.0697 29.1321 12.4732 29.1321C10.8768 29.1321 9.58258 30.4146 9.58258 31.9967C9.58258 33.5788 10.8768 34.8613 12.4732 34.8613Z" fill="#FE4545"/>
<path d="M38.4896 8.125H11.5104C8.95588 8.12803 6.50686 9.13502 4.70053 10.9251C2.8942 12.7151 1.87806 15.1421 1.875 17.6736V32.9514C1.87806 35.4829 2.8942 37.9099 4.70053 39.6999C6.50686 41.49 8.95588 42.497 11.5104 42.5H38.4896C41.0441 42.497 43.4931 41.49 45.2995 39.6999C47.1058 37.9099 48.1219 35.4829 48.125 32.9514V17.6736C48.1219 15.1421 47.1058 12.7151 45.2995 10.9251C43.4931 9.13502 41.0441 8.12803 38.4896 8.125ZM11.5104 11.9444H38.4896C40.0229 11.9444 41.4934 12.5481 42.5775 13.6225C43.6617 14.6969 44.2708 16.1541 44.2708 17.6736H5.72917C5.72917 16.1541 6.33826 14.6969 7.42246 13.6225C8.50665 12.5481 9.97713 11.9444 11.5104 11.9444ZM38.4896 38.6806H11.5104C9.97713 38.6806 8.50665 38.0769 7.42246 37.0025C6.33826 35.9281 5.72917 34.4709 5.72917 32.9514V21.4931H44.2708V32.9514C44.2708 34.4709 43.6617 35.9281 42.5775 37.0025C41.4934 38.0769 40.0229 38.6806 38.4896 38.6806Z" fill="#FE4545"/>
</svg>
