<svg width="50" height="50" viewBox="0 0 50 50" fill="none" xmlns="http://www.w3.org/2000/svg">
<g clip-path="url(#clip0_432_6619)">
<path d="M35.4199 -0.00195312H14.5866C8.84284 -0.00195312 4.16992 4.67096 4.16992 10.4147V43.7397C4.16992 46.3126 5.71576 48.5918 8.10534 49.5439C10.4991 50.5022 13.1866 49.9043 15.0158 47.971L25.0012 36.5022L35.047 48.0355C36.2574 49.3126 37.8949 49.9918 39.572 49.9918C40.3512 49.9918 41.1387 49.846 41.8991 49.5418C44.2887 48.5897 45.8345 46.3105 45.8345 43.7376V10.4147C45.8345 4.67096 41.1637 -0.00195312 35.4199 -0.00195312ZM34.8012 17.6376L30.6949 20.9835L32.3928 26.1585C32.6262 26.8585 32.3887 27.6293 31.8053 28.0793C31.2199 28.5293 30.4158 28.5605 29.797 28.1585L25.0158 25.0439L20.3137 28.1897C20.022 28.3855 19.6845 28.4835 19.347 28.4835C18.9803 28.4835 18.6137 28.3668 18.3053 28.1376C17.7158 27.696 17.4699 26.9293 17.6908 26.2272L19.3241 20.9918L15.197 17.6335C14.6408 17.1626 14.4387 16.396 14.6908 15.7126C14.9408 15.0293 15.5908 14.5751 16.3199 14.5751H21.5303L23.3741 9.40221C23.6262 8.72305 24.2762 8.27305 25.0012 8.27305C25.7262 8.27305 26.3762 8.72305 26.6283 9.40221L28.472 14.5751H33.6824C34.4116 14.5751 35.0637 15.0314 35.3137 15.7168C35.5637 16.4022 35.3595 17.171 34.8012 17.6397V17.6376Z" fill="#FE4545"/>
</g>
<defs>
<clipPath id="clip0_432_6619">
<rect width="50" height="50" fill="white"/>
</clipPath>
</defs>
</svg>
